<svg width="25" height="24" viewBox="0 0 25 24" fill="none" xmlns="http://www.w3.org/2000/svg">
<g id="circle 1">
<path id="Vector" d="M12.166 4.75C10.7321 4.75 9.33039 5.17521 8.13813 5.97185C6.94588 6.76849 6.01663 7.90078 5.46789 9.22554C4.91916 10.5503 4.77558 12.008 5.05533 13.4144C5.33507 14.8208 6.02556 16.1126 7.03949 17.1265C8.05342 18.1405 9.34525 18.8309 10.7516 19.1107C12.158 19.3904 13.6157 19.2469 14.9405 18.6981C16.2652 18.1494 17.3975 17.2201 18.1942 16.0279C18.9908 14.8356 19.416 13.4339 19.416 12C19.416 11.0479 19.2285 10.1052 18.8641 9.22554C18.4998 8.34593 17.9658 7.5467 17.2925 6.87348C16.6193 6.20025 15.8201 5.66622 14.9405 5.30187C14.0609 4.93753 13.1181 4.75 12.166 4.75ZM12.166 17.35C11.1079 17.35 10.0735 17.0362 9.19372 16.4484C8.31391 15.8605 7.62819 15.0249 7.22326 14.0474C6.81833 13.0698 6.71239 11.9941 6.91882 10.9563C7.12525 9.91847 7.63479 8.96519 8.383 8.21698C9.13121 7.46877 10.0845 6.95923 11.1223 6.7528C12.1601 6.54637 13.2358 6.65232 14.2134 7.05724C15.191 7.46217 16.0265 8.1479 16.6144 9.0277C17.2022 9.9075 17.516 10.9419 17.516 12C17.516 13.4189 16.9524 14.7797 15.949 15.783C14.9457 16.7863 13.5849 17.35 12.166 17.35Z" fill="#999999" stroke="#999999" stroke-width="0.5"/>
</g>
</svg>
