<svg width="25" height="24" viewBox="0 0 25 24" fill="none" xmlns="http://www.w3.org/2000/svg">
<g id="&#240;&#159;&#166;&#134; icon &#34;pin outline&#34;">
<g id="Group">
<path id="Vector" d="M12.166 2C10.0581 1.99989 8.03527 2.83176 6.53726 4.31479C5.03925 5.79782 4.1871 7.81216 4.16602 9.92C4.16602 15.4 11.216 21.5 11.516 21.76C11.6971 21.9149 11.9277 22.0001 12.166 22.0001C12.4044 22.0001 12.6349 21.9149 12.816 21.76C13.166 21.5 20.166 15.4 20.166 9.92C20.1449 7.81216 19.2928 5.79782 17.7948 4.31479C16.2968 2.83176 14.274 1.99989 12.166 2ZM12.166 19.65C10.496 18.06 6.16602 13.65 6.16602 9.92C6.16602 8.3287 6.79816 6.80258 7.92338 5.67736C9.04859 4.55214 10.5747 3.92 12.166 3.92C13.7573 3.92 15.2834 4.55214 16.4087 5.67736C17.5339 6.80258 18.166 8.3287 18.166 9.92C18.166 13.62 13.836 18.06 12.166 19.65Z" fill="#909090"/>
<path id="Vector_2" d="M12.166 6C11.4738 6 10.7971 6.20527 10.2215 6.58986C9.64595 6.97444 9.19735 7.52107 8.93244 8.16061C8.66753 8.80015 8.59822 9.50388 8.73327 10.1828C8.86832 10.8618 9.20166 11.4854 9.69114 11.9749C10.1806 12.4644 10.8043 12.7977 11.4832 12.9327C12.1621 13.0678 12.8659 12.9985 13.5054 12.7336C14.145 12.4687 14.6916 12.0201 15.0762 11.4445C15.4607 10.8689 15.666 10.1922 15.666 9.5C15.666 8.57174 15.2973 7.6815 14.6409 7.02513C13.9845 6.36875 13.0943 6 12.166 6ZM12.166 11C11.8693 11 11.5793 10.912 11.3327 10.7472C11.086 10.5824 10.8937 10.3481 10.7802 10.074C10.6667 9.79994 10.637 9.49834 10.6948 9.20736C10.7527 8.91639 10.8956 8.64912 11.1054 8.43934C11.3151 8.22956 11.5824 8.0867 11.8734 8.02882C12.1644 7.97094 12.466 8.00065 12.74 8.11418C13.0141 8.22771 13.2484 8.41997 13.4132 8.66665C13.578 8.91332 13.666 9.20333 13.666 9.5C13.666 9.89783 13.508 10.2794 13.2267 10.5607C12.9454 10.842 12.5638 11 12.166 11Z" fill="#909090"/>
</g>
</g>
</svg>
