<?xml version="1.0" encoding="UTF-8"?>
<svg xmlns="http://www.w3.org/2000/svg" xmlns:xlink="http://www.w3.org/1999/xlink" width="38px" height="38px" viewBox="0 0 38 38" version="1.1">
<g id="surface1">
<path style="fill-rule:nonzero;fill:rgb(100%,100%,100%);fill-opacity:1;stroke-width:1.5;stroke-linecap:butt;stroke-linejoin:miter;stroke:rgb(15.294118%,39.215687%,75.294119%);stroke-opacity:1;stroke-miterlimit:4;" d="M 49.249589 25 C 49.249589 11.605674 38.394326 0.750411 25 0.750411 C 11.605674 0.750411 0.750411 11.605674 0.750411 25 C 0.750411 38.394326 11.605674 49.249589 25 49.249589 C 38.394326 49.249589 49.249589 38.394326 49.249589 25 Z M 49.249589 25 " transform="matrix(0.76,0,0,0.76,0,0)"/>
<path style=" stroke:none;fill-rule:nonzero;fill:rgb(15.294118%,39.215687%,75.294119%);fill-opacity:1;" d="M 29.789062 19.699219 C 29.707031 19.617188 29.609375 19.550781 29.503906 19.503906 C 29.394531 19.460938 29.28125 19.4375 29.164062 19.4375 C 29.046875 19.4375 28.929688 19.460938 28.824219 19.503906 C 28.714844 19.550781 28.617188 19.617188 28.535156 19.699219 L 25.628906 22.613281 L 25.628906 15.90625 C 25.628906 15.671875 25.535156 15.449219 25.367188 15.28125 C 25.203125 15.117188 24.980469 15.023438 24.746094 15.023438 C 24.511719 15.023438 24.285156 15.117188 24.121094 15.28125 C 23.953125 15.449219 23.859375 15.671875 23.859375 15.90625 L 23.859375 22.613281 L 20.953125 19.699219 C 20.785156 19.53125 20.5625 19.4375 20.324219 19.4375 C 20.089844 19.4375 19.863281 19.53125 19.699219 19.699219 C 19.53125 19.863281 19.4375 20.089844 19.4375 20.324219 C 19.4375 20.5625 19.53125 20.785156 19.699219 20.953125 L 24.117188 25.371094 C 24.199219 25.453125 24.300781 25.515625 24.410156 25.558594 C 24.515625 25.605469 24.628906 25.628906 24.746094 25.628906 C 24.859375 25.628906 24.972656 25.605469 25.078125 25.558594 C 25.1875 25.515625 25.289062 25.453125 25.371094 25.371094 L 29.789062 20.953125 C 29.875 20.871094 29.9375 20.773438 29.984375 20.664062 C 30.027344 20.558594 30.050781 20.441406 30.050781 20.324219 C 30.050781 20.210938 30.027344 20.09375 29.984375 19.984375 C 29.9375 19.878906 29.875 19.78125 29.789062 19.699219 Z M 29.789062 19.699219 "/>
<path style=" stroke:none;fill-rule:nonzero;fill:rgb(15.294118%,39.215687%,75.294119%);fill-opacity:1;" d="M 8.210938 18.300781 C 8.292969 18.382812 8.390625 18.449219 8.496094 18.496094 C 8.605469 18.539062 8.71875 18.5625 8.835938 18.5625 C 8.953125 18.5625 9.070312 18.539062 9.175781 18.496094 C 9.285156 18.449219 9.382812 18.382812 9.464844 18.300781 L 12.371094 15.386719 L 12.371094 22.09375 C 12.371094 22.328125 12.464844 22.550781 12.632812 22.71875 C 12.796875 22.882812 13.019531 22.976562 13.253906 22.976562 C 13.488281 22.976562 13.714844 22.882812 13.878906 22.71875 C 14.046875 22.550781 14.140625 22.328125 14.140625 22.09375 L 14.140625 15.386719 L 17.046875 18.300781 C 17.214844 18.46875 17.4375 18.5625 17.675781 18.5625 C 17.910156 18.5625 18.136719 18.46875 18.300781 18.300781 C 18.46875 18.136719 18.5625 17.910156 18.5625 17.675781 C 18.5625 17.4375 18.46875 17.214844 18.300781 17.046875 L 13.882812 12.628906 C 13.800781 12.546875 13.699219 12.484375 13.589844 12.441406 C 13.484375 12.394531 13.371094 12.371094 13.253906 12.371094 C 13.140625 12.371094 13.027344 12.394531 12.921875 12.441406 C 12.8125 12.484375 12.710938 12.546875 12.628906 12.628906 L 8.210938 17.046875 C 8.125 17.128906 8.0625 17.226562 8.015625 17.335938 C 7.972656 17.441406 7.949219 17.558594 7.949219 17.675781 C 7.949219 17.789062 7.972656 17.90625 8.015625 18.015625 C 8.0625 18.121094 8.125 18.21875 8.210938 18.300781 Z M 8.210938 18.300781 "/>
</g>
</svg>
