<svg width="48" height="49" viewBox="0 0 48 49" fill="none" xmlns="http://www.w3.org/2000/svg">
<path id="Vector" fill-rule="evenodd" clip-rule="evenodd" d="M24 0.5C37.2548 0.5 48 11.2445 48 24.5C48 37.7555 37.2548 48.5 24 48.5C10.7452 48.5 0 37.7555 0 24.5C0 11.2445 10.7452 0.5 24 0.5ZM26.1429 6.81097C26.1429 5.79123 27.0308 4.99091 28.0293 5.19834C35.6837 6.78868 41.7121 12.8165 43.3018 20.4709C43.5092 21.4693 42.7089 22.3571 41.6892 22.3571H32.7025C31.9388 22.3571 31.2846 21.8419 30.9531 21.154C30.1948 19.5812 28.9191 18.305 27.3465 17.5469C26.6583 17.2152 26.1429 16.5611 26.1429 15.7971V6.81097ZM20.6541 17.5471C21.342 17.2154 21.8571 16.5613 21.8571 15.7978V6.8108C21.8571 5.79114 20.9696 4.99083 19.9712 5.19817C11.0157 7.05791 4.28571 14.9931 4.28571 24.5C4.28571 34.0069 11.0157 41.9421 19.9712 43.8018C20.9696 44.0092 21.8571 43.2089 21.8571 42.1892V33.2022C21.8571 32.4387 21.342 31.7846 20.6541 31.4529C18.0695 30.2065 16.2857 27.562 16.2857 24.5C16.2857 21.438 18.0695 18.7935 20.6541 17.5471ZM27.3465 31.4531C26.6583 31.7848 26.1429 32.4389 26.1429 33.2029V42.189C26.1429 43.2088 27.0308 44.0091 28.0293 43.8016C35.6837 42.2113 41.7121 36.1835 43.3018 28.5291C43.5092 27.5307 42.7089 26.6429 41.6892 26.6429H32.7025C31.9388 26.6429 31.2846 27.1581 30.9531 27.846C30.1948 29.4188 28.9191 30.695 27.3465 31.4531ZM24 21.0714C25.8934 21.0714 27.4286 22.6066 27.4286 24.5C27.4286 26.3934 25.8934 27.9286 24 27.9286C22.1066 27.9286 20.5714 26.3934 20.5714 24.5C20.5714 22.6066 22.1066 21.0714 24 21.0714Z" fill="#B9BCC2"/>
</svg>
