<svg width="201" height="32" viewBox="0 0 201 32" fill="none" xmlns="http://www.w3.org/2000/svg">
<path d="M56.2687 24.5034C56.2659 24.5195 56.2653 24.533 56.2631 24.5486C56.0211 25.7693 54.8136 26.7577 53.566 26.7577C52.3183 26.7577 51.503 25.7682 51.744 24.5491C51.7473 24.5341 51.7522 24.5201 51.755 24.5045C52.019 23.3064 53.2089 22.3416 54.4412 22.3416C55.6745 22.3416 56.4832 23.3064 56.2692 24.5045L56.2687 24.5034ZM54.8202 19.8868C52.2457 19.8868 49.7537 21.927 49.2547 24.4432C49.2509 24.4636 49.2492 24.4835 49.2448 24.5034C48.7844 26.9932 50.4595 29.0001 53.0131 29.0001C55.5673 29.0001 58.0384 26.9921 58.5648 24.5029C58.5687 24.483 58.5742 24.4631 58.5786 24.4426C59.077 21.9259 57.3947 19.8862 54.8202 19.8862M18.4534 24.5034L18.4468 24.5486C18.2048 25.7693 16.9984 26.7577 15.7502 26.7577C14.5025 26.7577 13.6873 25.7682 13.9293 24.5491C13.9321 24.5341 13.937 24.5201 13.9403 24.5045C14.2022 23.3064 15.3937 22.3416 16.626 22.3416C17.8582 22.3416 18.6669 23.3064 18.4534 24.5045V24.5034ZM17.0044 19.8868C14.5273 19.8868 12.1277 21.7754 11.5055 24.1598C11.4813 24.2539 11.4588 24.348 11.4395 24.4432C10.9411 26.9599 12.6234 29.0001 15.1984 29.0001C17.752 29.0001 20.2231 26.9921 20.7491 24.5029C20.7546 24.483 20.7601 24.4631 20.7634 24.4426C21.2623 21.9259 19.5795 19.8862 17.005 19.8862" fill="#656263"/>
<path d="M60.6218 20.4099C59.6118 19.5312 58.889 17.99 57.9852 16.5746C57.8806 16.3843 57.7816 16.1928 57.6837 16.0019C57.6078 15.8513 57.533 15.7024 57.4604 15.5523C57.3668 15.3604 57.2744 15.1678 57.1886 14.9753C56.9537 14.4537 56.7469 13.9342 56.5604 13.418V13.3911H56.5505L56.4669 13.1599C56.4525 13.1168 56.4366 13.0749 56.4228 13.0324C56.3667 12.87 56.315 12.7087 56.2644 12.5468L56.2055 12.3586C56.1588 12.2064 56.1148 12.0548 56.0724 11.9031L56.0152 11.6934C55.9756 11.5461 55.9382 11.3998 55.9019 11.2535L55.8524 11.0395C55.8183 10.8954 55.7847 10.7513 55.755 10.6093C55.7413 10.5421 55.7297 10.4765 55.7165 10.4103C55.6241 9.94785 55.5515 9.49614 55.4965 9.05518C55.4855 8.96053 55.4728 8.86589 55.4634 8.77286C55.4524 8.67068 55.4436 8.56851 55.4343 8.46741C55.4255 8.36524 55.4167 8.26306 55.4095 8.16089C55.4029 8.06678 55.3985 7.97268 55.393 7.87911C55.3875 7.77371 55.3831 7.66938 55.3798 7.56506C55.3771 7.47794 55.3754 7.3919 55.3743 7.30693C55.3727 7.19669 55.3727 7.08861 55.3743 6.98105C55.3743 6.90469 55.3754 6.82726 55.3776 6.75197C55.3804 6.63259 55.387 6.51536 55.393 6.39974C55.3963 6.33897 55.3985 6.27713 55.4029 6.21798C55.415 6.04321 55.4304 5.8722 55.4502 5.70711H57.5517C62.4576 5.70496 64.7999 8.65616 65.2587 11.0363C66.1318 15.5566 66.2269 21.1127 66.2269 21.1127C66.2269 21.1127 62.32 21.8855 60.6213 20.4083L60.6218 20.4099ZM52.6276 13.3922C47.0495 13.3911 5.01546 13.3922 3.88113 13.3922C3.89214 13.3319 4.07367 11.6208 4.27391 10.5727C4.73051 8.19262 4.70025 5.70819 10.6772 5.70819H54.2494C53.9963 8.06893 54.4655 10.8276 55.3342 13.3927L52.6276 13.3922ZM69.9858 10.163C69.1431 9.04765 67.5654 8.34265 66.6115 7.99795C64.5188 4.23474 59.7582 2.73977 55.2296 3.03662H9.51868C6.71861 3.03662 2.79466 4.8338 2.23685 7.92374L0.95509 15.0339C9.08574 15.0264 40.4377 14.9931 55.9316 14.9769C56.0119 15.1705 56.0944 15.3641 56.1791 15.5534C40.7073 15.5696 8.85579 15.6034 0.850019 15.611L0.514451 17.4727C0.618972 17.4501 0.725694 17.4377 0.833516 17.4377C1.61797 17.4377 2.15378 18.0599 2.02891 18.8278C1.90403 19.5957 1.16633 20.2185 0.381324 20.2185C0.259199 20.2185 0.144776 20.2023 0.0364038 20.1733C-0.112126 21.4725 0.697638 22.1269 2.26436 22.5813L11.1168 24.0941C11.7714 21.5381 14.3498 19.5016 17.0046 19.5016C18.3524 19.5016 19.5296 20.0157 20.3152 20.9471C21.1183 21.8989 21.4143 23.161 21.1513 24.5038H48.8462C48.8539 24.4597 48.8599 24.4156 48.8693 24.3705C49.4012 21.686 52.0709 19.5016 54.8204 19.5016C56.1692 19.5016 57.3443 20.0152 58.1309 20.9466C58.9341 21.8984 59.2301 23.1605 58.9671 24.5033H65.8369C67.3057 24.5033 68.5434 23.3407 68.5864 21.9199C68.5864 21.9199 68.4653 16.3423 67.578 10.8287C67.49 10.2721 67.3547 9.74781 67.1797 9.25469C67.7326 9.487 68.3322 9.7548 68.5842 9.91881C69.1068 10.2614 69.3241 11.973 69.3708 12.656C69.417 13.3411 69.8054 15.1496 70.805 15.1496C71.8804 15.1496 71.5564 12.2403 69.9853 10.1635" fill="#DCCF05"/>
<path d="M15.408 28.0004C12.9897 28.0004 11.3592 26.2022 11.5825 23.8984C11.555 23.9845 11.5286 24.0721 11.5055 24.1598C11.4813 24.2539 11.4588 24.348 11.4395 24.4432C10.9411 26.9599 12.6234 29.0001 15.1984 29.0001C17.752 29.0001 20.2231 26.9921 20.7491 24.5029C20.7546 24.483 20.7601 24.4631 20.7634 24.4426C20.7942 24.2899 20.8162 24.1383 20.8305 23.9882C20.1071 26.2484 17.7939 27.9999 15.4086 27.9999M53.2249 28.0004C50.806 28.0004 49.1761 26.2022 49.3989 23.8984C49.3714 23.9845 49.3449 24.0721 49.3218 24.1598C49.2976 24.2539 49.2751 24.348 49.2558 24.4432C48.7574 26.9599 50.4397 29.0001 53.0142 29.0001C55.5684 29.0001 58.0395 26.9921 58.5659 24.5029L58.5791 24.4426C58.6088 24.2899 58.6314 24.1383 58.6451 23.9882C57.9223 26.2484 55.6085 27.9999 53.2238 27.9999" fill="#4F4C4C"/>
<path d="M54.8202 19.5C56.1691 19.5 57.3452 20.0136 58.1319 20.945C58.5995 21.4989 58.8932 22.1587 59.0065 22.8788C59.1441 21.6887 58.8344 20.5826 58.1137 19.7275C57.3304 18.8004 56.1581 18.2885 54.8147 18.2885C52.0735 18.2885 49.4126 20.4653 48.8828 23.1407C48.8735 23.1858 48.8663 23.2294 48.8592 23.2735H21.2557C21.517 21.9345 21.2227 20.6761 20.4217 19.7281C19.6384 18.7999 18.4666 18.2885 17.1222 18.2885C14.4761 18.2885 11.9054 20.3174 11.2541 22.8648L2.43033 21.358C1.50999 21.0902 0.858658 20.7503 0.504936 20.254C1.24484 20.1868 1.91487 19.564 2.03315 18.8343C2.15967 18.0599 1.61891 17.4318 0.827301 17.4318C0.72168 17.4318 0.617159 17.4447 0.514838 17.4663C0.3278 18.5445 0.113257 19.7797 0.0296399 20.1604L0.0186376 20.1583C-0.135394 21.465 0.67052 22.1248 2.24329 22.5814L11.1001 24.0941C11.7531 21.5365 14.3336 19.5006 16.989 19.5006C18.3379 19.5006 19.514 20.0136 20.3007 20.9455C21.1039 21.8974 21.4009 23.1611 21.1369 24.5044H48.8432C48.8515 24.4598 48.8575 24.4157 48.8663 24.371C49.3988 21.686 52.0691 19.5 54.8202 19.5ZM68.5361 20.7014C68.4938 22.1168 67.261 23.2751 65.7982 23.2751H59.0616C59.0863 23.672 59.0588 24.0833 58.9774 24.5033H65.8444C67.3121 24.5033 68.5499 23.3418 68.5928 21.9205C68.5928 21.9205 68.5763 21.1569 68.5103 19.9147C68.5301 20.4164 68.5361 20.7014 68.5361 20.7014ZM71.0903 14.8447C70.0759 14.8447 69.682 13.0093 69.6336 12.3146C69.5874 11.6209 69.3662 9.8839 68.8359 9.53705C68.5796 9.36927 66.9177 8.69385 66.9177 8.69385C66.9177 8.69385 67.0761 8.96165 67.1796 9.25526C67.7407 9.49188 68.3056 9.73763 68.562 9.90595C69.0917 10.2533 69.292 11.9575 69.3387 12.6523C69.3871 13.347 69.7805 15.1824 70.7954 15.1824C71.0353 15.1824 71.2058 15.0399 71.3098 14.7963C71.2438 14.8286 71.1723 14.8458 71.0897 14.8458" fill="#4F4C4C"/>
<path d="M85.3318 12.3C85.6687 12.3 85.9989 12.3506 86.3218 12.4502L86.0019 15.0516C85.8098 14.9844 85.5586 14.9505 85.2498 14.9505C84.5826 14.9505 84.0699 15.2076 83.7131 15.7218C83.3555 16.2367 83.1767 16.9842 83.1767 17.9657V23.7418H80.4336V12.5116H82.6913L83.0016 14.2666H83.094C83.3969 13.5603 83.7264 13.0562 84.084 12.7528C84.4415 12.4495 84.8567 12.3 85.3318 12.3ZM95.5293 18.1065C95.5293 19.9481 95.1304 21.3817 94.3325 22.4065C93.5346 23.432 92.4427 23.9447 91.0537 23.9447C90.1731 23.9447 89.3966 23.7086 88.7228 23.2384C88.0483 22.769 87.5304 22.0916 87.1662 21.2076C86.8005 20.3236 86.6195 19.2902 86.6195 18.1072C86.6195 16.2858 87.0147 14.8624 87.8053 13.8369C88.5958 12.8113 89.6921 12.3 91.0951 12.3C92.4493 12.3 93.5272 12.8229 94.328 13.8672C95.1289 14.9129 95.5293 16.327 95.5293 18.1065ZM89.4239 18.1065C89.4239 19.2765 89.5547 20.1597 89.8155 20.7584C90.077 21.3557 90.4974 21.6539 91.0744 21.6539C92.1752 21.6539 92.7241 20.4717 92.7241 18.1058C92.7241 16.9286 92.5911 16.0511 92.3274 15.4697C92.0629 14.8877 91.6455 14.5973 91.0744 14.5973C90.4982 14.5973 90.077 14.8862 89.8162 15.4683C89.5547 16.0504 89.4247 16.9286 89.4247 18.1043L89.4239 18.1065ZM99.9517 23.944C98.893 23.944 98.0575 23.4334 97.4457 22.4108C96.834 21.3903 96.5274 19.9683 96.5274 18.1469C96.5274 16.3198 96.8274 14.8869 97.4258 13.852C98.0242 12.8171 98.8487 12.2993 99.9007 12.2993C100.423 12.2993 100.876 12.425 101.256 12.677C101.639 12.9298 101.992 13.3544 102.315 13.9517H102.48C102.397 12.9312 102.354 12.2148 102.354 11.8046V8.05566H105.099V23.7418H103.058L102.594 22.2808H102.501C101.917 23.3894 101.067 23.944 99.9532 23.944H99.9517ZM100.838 21.6749C101.348 21.6749 101.719 21.4488 101.952 20.9946C102.186 20.541 102.314 19.7163 102.334 18.5196V18.1664C102.334 16.8629 102.215 15.9464 101.979 15.4149C101.74 14.884 101.351 14.619 100.807 14.619C100.297 14.619 99.9296 14.9223 99.6991 15.5311C99.4686 16.1399 99.3533 17.0261 99.3533 18.1888C99.3533 19.3516 99.4715 20.2225 99.7042 20.8032C99.9384 21.3845 100.317 21.6756 100.839 21.6756L100.838 21.6749ZM115.388 18.1065C115.388 19.9481 114.989 21.3817 114.191 22.4065C113.395 23.432 112.3 23.9447 110.912 23.9447C110.032 23.9447 109.255 23.7086 108.582 23.2384C107.908 22.769 107.389 22.0916 107.025 21.2076C106.66 20.3236 106.478 19.2902 106.478 18.1072C106.478 16.2858 106.873 14.8624 107.664 13.8369C108.454 12.8113 109.552 12.3 110.954 12.3C112.308 12.3 113.386 12.8229 114.187 13.8672C114.988 14.9129 115.388 16.327 115.388 18.1065ZM109.283 18.1065C109.283 19.2765 109.413 20.1597 109.675 20.7584C109.937 21.3557 110.355 21.6539 110.933 21.6539C112.034 21.6539 112.583 20.4717 112.583 18.1058C112.583 16.9286 112.45 16.0511 112.186 15.4697C111.92 14.8877 111.503 14.5973 110.933 14.5973C110.355 14.5973 109.936 14.8862 109.674 15.4683C109.413 16.0504 109.283 16.9286 109.283 18.1043L109.283 18.1065ZM118.624 23.7418L115.623 12.5116H118.47L119.933 19.0143C119.996 19.3162 120.07 19.7582 120.156 20.3395C120.241 20.9202 120.297 21.3383 120.316 21.594H120.358C120.365 21.3918 120.393 21.1029 120.444 20.7273C120.496 20.3518 120.55 20.0051 120.605 19.6895C120.661 19.3718 121.19 16.9813 122.193 12.5109H125.04L122.028 23.7411H118.625L118.624 23.7418ZM125.583 9.57734C125.583 9.13535 125.716 8.78292 125.982 8.52437C126.246 8.26438 126.615 8.13438 127.09 8.13438C127.537 8.13438 127.894 8.26438 128.162 8.52437C128.431 8.78292 128.564 9.13463 128.564 9.57661C128.564 10.0345 128.427 10.3891 128.152 10.6411C127.877 10.8939 127.523 11.0196 127.09 11.0196C126.635 11.0196 126.27 10.8932 125.996 10.6419C125.721 10.3905 125.583 10.0352 125.583 9.57806L125.583 9.57734ZM128.44 23.7418H125.697V12.5116H128.44V23.7418ZM135.895 23.7418L135.348 22.2093H135.287C134.88 22.8694 134.461 23.3215 134.028 23.5699C133.596 23.8184 133.05 23.944 132.388 23.944C131.543 23.944 130.878 23.6349 130.394 23.0167C129.909 22.3978 129.667 21.5377 129.667 20.4356C129.667 19.2526 129.999 18.3744 130.662 17.7996C131.325 17.2247 132.317 16.9062 133.637 16.8463L135.163 16.7856V15.9796C135.163 14.931 134.699 14.4067 133.771 14.4067C133.084 14.4067 132.294 14.6688 131.4 15.1924L130.45 13.3378C131.591 12.6322 132.832 12.2798 134.173 12.2798C135.39 12.2798 136.316 12.6192 136.953 13.3024C137.588 13.9849 137.906 14.9505 137.906 16.2006V23.7404H135.896L135.895 23.7418ZM133.512 21.8468C134.014 21.8468 134.413 21.6272 134.714 21.1859C135.013 20.7468 135.162 20.1604 135.162 19.4281V18.482L134.317 18.5203C133.691 18.5535 133.232 18.7297 132.94 19.0453C132.647 19.3602 132.501 19.8297 132.501 20.4558C132.501 21.3824 132.838 21.8468 133.511 21.8468H133.512ZM144.493 12.3C144.83 12.3 145.161 12.3506 145.483 12.4502L145.164 15.0516C144.972 14.9844 144.721 14.9505 144.411 14.9505C143.746 14.9505 143.232 15.2076 142.874 15.7218C142.517 16.2367 142.338 16.9842 142.338 17.9657V23.7418H139.594V12.5116H141.853L142.163 14.2666H142.255C142.558 13.5603 142.887 13.0562 143.245 12.7528C143.603 12.4495 144.018 12.3 144.493 12.3ZM146.091 9.57734C146.091 9.13535 146.224 8.78292 146.487 8.52437C146.752 8.26438 147.121 8.13438 147.596 8.13438C148.043 8.13438 148.401 8.26438 148.668 8.52437C148.937 8.78292 149.07 9.13463 149.07 9.57661C149.07 10.0345 148.934 10.3891 148.659 10.6411C148.384 10.8939 148.031 11.0196 147.597 11.0196C147.144 11.0196 146.779 10.8932 146.504 10.6419C146.228 10.3905 146.091 10.0352 146.091 9.57806L146.091 9.57734ZM148.947 23.7418H146.204V12.5116H148.948L148.947 23.7418ZM156.401 23.7418L155.855 22.2093H155.793C155.386 22.8694 154.968 23.3215 154.535 23.5699C154.101 23.8184 153.555 23.944 152.895 23.944C152.049 23.944 151.383 23.6349 150.899 23.0167C150.414 22.3978 150.172 21.5377 150.172 20.4356C150.172 19.2526 150.504 18.3744 151.168 17.7996C151.83 17.2247 152.823 16.9062 154.142 16.8463L155.669 16.7856V15.9796C155.669 14.931 155.205 14.4067 154.277 14.4067C153.589 14.4067 152.799 14.6688 151.905 15.1924L150.956 13.3378C152.097 12.6322 153.338 12.2798 154.679 12.2798C155.896 12.2798 156.822 12.6192 157.457 13.3024C158.095 13.9849 158.412 14.9505 158.412 16.2006V23.7404H156.401V23.7418ZM154.019 21.8468C154.522 21.8468 154.921 21.6272 155.221 21.1859C155.519 20.7468 155.669 20.1604 155.669 19.4281V18.482L154.824 18.5203C154.196 18.5535 153.738 18.7297 153.445 19.0453C153.154 19.3602 153.007 19.8297 153.007 20.4558C153.007 21.3824 153.345 21.8468 154.019 21.8468ZM166.733 18.2473C166.733 20.0889 166.436 21.4987 165.841 22.4772C165.247 23.4536 164.396 23.9433 163.288 23.9433C162.195 23.9433 161.359 23.4544 160.778 22.4772C160.196 21.4979 159.906 20.0882 159.906 18.2466C159.906 14.4767 161.048 12.5918 163.33 12.5918C164.403 12.5918 165.239 13.0851 165.836 14.0723C166.435 15.0603 166.733 16.4527 166.733 18.2466L166.733 18.2473ZM160.926 18.2473C160.926 19.8268 161.119 21.0206 161.504 21.8265C161.89 22.6325 162.491 23.0362 163.31 23.0362C164.911 23.0362 165.712 21.4402 165.712 18.248C165.712 15.0827 164.911 13.5003 163.31 13.5003C162.47 13.5003 161.864 13.8961 161.489 14.6883C161.115 15.4806 160.928 16.6672 160.928 18.2466L160.926 18.2473ZM174.251 23.7418V16.2021C174.251 14.3865 173.701 13.4794 172.601 13.4794C171.764 13.4794 171.149 13.8188 170.761 14.4977C170.373 15.1765 170.178 16.2555 170.178 17.7331V23.7418H169.199V12.8041H170.024L170.105 14.3258H170.198C170.432 13.7747 170.769 13.3479 171.21 13.0453C171.649 12.742 172.121 12.5918 172.621 12.5918C173.489 12.5918 174.138 12.8756 174.572 13.444C175.006 14.0109 175.222 14.9245 175.222 16.1797V23.7411H174.251L174.251 23.7418ZM179.15 23.7418H178.17V8.05566H179.149V23.7418H179.15ZM181.996 9.76944C181.996 9.46756 182.06 9.23212 182.188 9.06313C182.314 8.89702 182.478 8.81181 182.677 8.81181C182.862 8.81181 183.01 8.8963 183.12 9.06313C183.231 9.23212 183.285 9.46756 183.285 9.76944C183.285 10.0583 183.231 10.288 183.12 10.4599C183.01 10.6303 182.862 10.717 182.677 10.717C182.478 10.717 182.314 10.6303 182.187 10.4591C182.06 10.2858 181.995 10.0569 181.995 9.768L181.996 9.76944ZM183.12 23.7418H182.141V12.8041H183.12V23.7418ZM191.164 23.7418V16.2021C191.164 14.3865 190.615 13.4794 189.515 13.4794C188.675 13.4794 188.062 13.8188 187.674 14.4977C187.285 15.1765 187.091 16.2555 187.091 17.7331V23.7418H186.111V12.8041H186.936L187.019 14.3258H187.111C187.346 13.7747 187.683 13.3479 188.122 13.0453C188.562 12.742 189.033 12.5918 189.535 12.5918C190.401 12.5918 191.05 12.8756 191.484 13.444C191.918 14.0109 192.134 14.9245 192.134 16.1797V23.7411H191.165L191.164 23.7418ZM198.26 23.944C197.078 23.944 196.169 23.4515 195.532 22.4671C194.897 21.4828 194.579 20.1091 194.579 18.3492C194.579 16.4801 194.861 15.0538 195.429 14.0687C195.996 13.0843 196.813 12.5925 197.879 12.5925C198.807 12.5925 199.539 13.0244 200.075 13.8874C200.611 14.7512 200.879 15.9146 200.879 17.3807V18.2675H195.578C195.591 19.8607 195.822 21.0538 196.269 21.8468C196.716 22.6397 197.392 23.0362 198.3 23.0362C199.002 23.0362 199.741 22.8123 200.517 22.3602V23.2875C199.803 23.7259 199.05 23.9447 198.259 23.9447L198.26 23.944ZM197.817 13.4591C196.469 13.4591 195.73 14.7721 195.6 17.4009H199.9C199.9 16.1977 199.712 15.2401 199.338 14.528C198.963 13.8152 198.456 13.4591 197.817 13.4591Z" fill="#58585A"/>
</svg>
