<?xml version="1.0" encoding="UTF-8"?>
<svg xmlns="http://www.w3.org/2000/svg" xmlns:xlink="http://www.w3.org/1999/xlink" width="300px" height="94px" viewBox="0 0 300 94" version="1.1">
<g id="surface1">
<path style=" stroke:none;fill-rule:evenodd;fill:rgb(64.705884%,3.529412%,19.607843%);fill-opacity:1;" d="M 3.53125 9.152344 L 13.050781 9.152344 C 14.992188 9.152344 16.582031 11.09375 16.582031 13.460938 L 16.582031 68.664062 C 16.582031 73.476562 12.855469 77.402344 8.289062 77.402344 C 3.71875 77.402344 0 73.460938 0 68.65625 L 0 13.453125 C 0 11.085938 1.589844 9.144531 3.53125 9.144531 "/>
<path style=" stroke:none;fill-rule:evenodd;fill:rgb(64.705884%,3.529412%,19.607843%);fill-opacity:1;" d="M 23.0625 9.152344 L 102.628906 9.152344 C 104.378906 9.152344 105.984375 9.875 105.839844 11.332031 C 105.636719 13.4375 103.640625 14.421875 102.628906 15.046875 L 24.621094 62.484375 C 23.273438 63.304688 19.882812 62.722656 19.882812 59.492188 L 19.882812 13.015625 C 19.882812 10.890625 21.316406 9.144531 23.0625 9.144531 "/>
<path style=" stroke:none;fill-rule:nonzero;fill:rgb(36.078432%,54.901963%,85.490197%);fill-opacity:1;" d="M 127.460938 30.375 L 127.460938 43.644531 C 127.460938 51.203125 130.949219 54.550781 136.933594 54.550781 C 142.921875 54.550781 146.828125 51.054688 146.828125 43.714844 L 146.828125 30.375 L 141.472656 30.375 L 141.472656 44.039062 C 141.472656 48.269531 139.921875 50.25 137.109375 50.25 C 134.296875 50.25 132.808594 48.164062 132.808594 44.039062 L 132.808594 30.375 L 127.453125 30.375 Z M 127.460938 30.375 "/>
<path style=" stroke:none;fill-rule:nonzero;fill:rgb(36.078432%,54.901963%,85.490197%);fill-opacity:1;" d="M 121.035156 42.15625 C 121.035156 42.15625 121.53125 42.15625 121.53125 42.15625 L 125.003906 42.15625 L 125.003906 53.347656 L 124.296875 53.632812 L 123.960938 53.746094 C 123.292969 53.972656 122.585938 54.144531 121.851562 54.257812 C 121.117188 54.371094 120.34375 54.421875 119.535156 54.421875 C 117.976562 54.421875 116.535156 54.226562 115.214844 53.835938 C 114.511719 53.664062 113.828125 53.4375 113.191406 53.160156 C 112.925781 53.046875 112.65625 52.917969 112.378906 52.769531 C 111.015625 52.054688 109.808594 51.082031 108.757812 49.859375 C 107.789062 48.730469 107.070312 47.511719 106.589844 46.203125 C 106.109375 44.894531 105.871094 43.496094 105.871094 42.015625 C 105.871094 41.945312 105.871094 41.871094 105.871094 41.796875 C 105.871094 41.726562 105.871094 41.660156 105.871094 41.59375 C 105.871094 39.472656 106.394531 37.503906 107.460938 35.675781 C 108.515625 33.855469 109.980469 32.425781 111.824219 31.394531 C 113.109375 30.6875 114.503906 30.351562 116.011719 30.132812 C 116.84375 29.980469 117.699219 29.914062 118.597656 29.914062 L 118.605469 29.914062 C 119.015625 29.914062 119.414062 29.929688 119.796875 29.960938 C 120.015625 29.96875 120.234375 29.980469 120.433594 29.996094 L 120.480469 29.996094 L 120.480469 34.546875 C 120.40625 34.53125 120.128906 34.523438 120.066406 34.507812 C 119.617188 34.433594 119.183594 34.394531 118.753906 34.394531 C 118.035156 34.394531 117.328125 34.488281 116.648438 34.660156 C 115.964844 34.832031 115.296875 35.101562 114.644531 35.457031 C 114.464844 35.554688 114.285156 35.660156 114.113281 35.773438 C 113.953125 35.871094 113.789062 35.992188 113.617188 36.109375 C 112.808594 36.71875 112.140625 37.457031 111.628906 38.320312 C 111.523438 38.503906 111.433594 38.667969 111.351562 38.832031 C 111.269531 39 111.1875 39.171875 111.121094 39.351562 C 110.753906 40.238281 110.574219 41.171875 110.574219 42.132812 C 110.574219 42.820312 110.664062 43.488281 110.851562 44.140625 C 111.039062 44.796875 111.308594 45.4375 111.675781 46.050781 C 111.78125 46.234375 111.890625 46.398438 112.003906 46.5625 C 112.117188 46.722656 112.238281 46.878906 112.363281 47.039062 C 113.011719 47.820312 113.796875 48.472656 114.734375 48.984375 C 115.386719 49.339844 116.070312 49.609375 116.78125 49.78125 C 117.496094 49.960938 118.246094 50.046875 119.023438 50.046875 C 119.300781 50.046875 119.578125 50.03125 119.84375 50.007812 C 119.992188 49.992188 120.128906 49.976562 120.269531 49.960938 L 120.269531 42.15625 L 121.050781 42.15625 Z M 121.035156 42.15625 "/>
<path style=" stroke:none;fill-rule:nonzero;fill:rgb(36.078432%,54.901963%,85.490197%);fill-opacity:1;" d="M 213.128906 33.691406 L 213.128906 30.375 L 222.503906 30.375 C 223.417969 30.375 224.25 30.433594 225 30.554688 C 225.765625 30.675781 226.441406 30.863281 227.03125 31.109375 C 227.625 31.367188 228.15625 31.6875 228.628906 32.085938 C 229.09375 32.480469 229.5 32.945312 229.84375 33.472656 C 230.183594 33.996094 230.4375 34.53125 230.609375 35.082031 C 230.78125 35.644531 230.863281 36.207031 230.863281 36.789062 C 230.863281 37.328125 230.789062 37.855469 230.640625 38.367188 C 230.488281 38.878906 230.265625 39.367188 229.964844 39.847656 C 229.664062 40.328125 229.28125 40.765625 228.824219 41.15625 C 228.71875 41.238281 228.613281 41.328125 228.511719 41.40625 C 228.75 41.519531 228.976562 41.644531 229.183594 41.78125 C 229.792969 42.164062 230.308594 42.632812 230.730469 43.171875 C 231.148438 43.714844 231.472656 44.300781 231.683594 44.941406 C 231.890625 45.578125 231.996094 46.253906 231.996094 46.976562 C 231.996094 47.550781 231.929688 48.105469 231.800781 48.65625 C 231.675781 49.195312 231.488281 49.714844 231.234375 50.210938 C 230.976562 50.714844 230.699219 51.152344 230.390625 51.535156 C 230.078125 51.925781 229.726562 52.265625 229.335938 52.550781 C 228.953125 52.828125 228.53125 53.070312 228.066406 53.273438 C 227.609375 53.476562 227.109375 53.640625 226.566406 53.777344 C 226.035156 53.910156 225.433594 54.007812 224.765625 54.078125 C 224.109375 54.144531 223.410156 54.175781 222.660156 54.175781 L 217.304688 54.175781 L 217.304688 50.171875 L 222.660156 50.171875 C 223.164062 50.171875 223.558594 50.164062 223.875 50.152344 C 224.203125 50.136719 224.453125 50.105469 224.625 50.082031 C 224.933594 50.03125 225.21875 49.957031 225.488281 49.863281 C 225.734375 49.78125 225.953125 49.675781 226.140625 49.5625 C 226.320312 49.460938 226.484375 49.324219 226.636719 49.160156 C 226.792969 48.992188 226.933594 48.789062 227.0625 48.5625 C 227.183594 48.347656 227.273438 48.113281 227.339844 47.851562 C 227.398438 47.585938 227.4375 47.300781 227.4375 46.992188 C 227.4375 46.632812 227.390625 46.308594 227.300781 46.007812 C 227.210938 45.714844 227.078125 45.445312 226.898438 45.195312 C 226.71875 44.945312 226.515625 44.738281 226.273438 44.5625 C 226.035156 44.390625 225.75 44.253906 225.421875 44.148438 C 225.074219 44.039062 224.648438 43.953125 224.128906 43.894531 C 223.597656 43.835938 222.976562 43.804688 222.261719 43.804688 L 213.140625 43.804688 L 213.140625 33.691406 Z M 218.054688 39.804688 L 221.894531 39.804688 C 222.570312 39.804688 223.125 39.78125 223.574219 39.742188 C 224.011719 39.707031 224.355469 39.644531 224.609375 39.570312 C 224.933594 39.480469 225.210938 39.351562 225.441406 39.210938 C 225.667969 39.066406 225.847656 38.902344 225.996094 38.707031 C 226.148438 38.511719 226.261719 38.285156 226.335938 38.035156 C 226.410156 37.773438 226.453125 37.480469 226.453125 37.148438 C 226.453125 36.816406 226.417969 36.539062 226.34375 36.269531 C 226.265625 36.003906 226.164062 35.765625 226.011719 35.546875 C 225.878906 35.328125 225.703125 35.148438 225.515625 35.003906 C 225.324219 34.863281 225.089844 34.742188 224.828125 34.667969 C 224.527344 34.578125 224.113281 34.507812 223.582031 34.457031 C 223.035156 34.410156 222.351562 34.382812 221.527344 34.382812 L 218.0625 34.382812 L 218.0625 39.8125 Z M 218.054688 39.804688 "/>
<path style=" stroke:none;fill-rule:nonzero;fill:rgb(36.078432%,54.901963%,85.490197%);fill-opacity:1;" d="M 175.6875 54.167969 L 175.6875 47 C 175.6875 43.121094 175.621094 39.765625 175.441406 36.585938 L 175.582031 36.585938 C 176.707031 39.375 178.289062 42.414062 179.699219 44.984375 L 183.832031 52.46875 L 183.847656 52.46875 C 184.46875 53.476562 185.578125 54.152344 186.847656 54.160156 L 186.871094 54.160156 C 188.8125 54.160156 190.394531 52.574219 190.394531 50.625 L 190.394531 30.367188 L 185.46875 30.367188 L 185.46875 37.285156 C 185.46875 40.886719 185.574219 44.097656 185.886719 47.242188 L 185.820312 47.242188 C 184.734375 44.554688 183.351562 41.59375 181.949219 39.089844 L 178.09375 32.261719 C 177.40625 31.132812 176.160156 30.375 174.734375 30.367188 L 174.703125 30.367188 C 172.523438 30.367188 170.761719 32.148438 170.761719 34.335938 L 170.761719 54.160156 L 175.6875 54.160156 Z M 175.6875 54.167969 "/>
<path style=" stroke:none;fill-rule:nonzero;fill:rgb(36.078432%,54.901963%,85.490197%);fill-opacity:1;" d="M 258.171875 33.691406 L 258.171875 30.375 L 267.546875 30.375 C 268.460938 30.375 269.296875 30.433594 270.046875 30.554688 C 270.808594 30.675781 271.484375 30.863281 272.078125 31.109375 C 272.671875 31.367188 273.203125 31.6875 273.675781 32.085938 C 274.140625 32.480469 274.546875 32.945312 274.890625 33.472656 C 275.226562 33.996094 275.484375 34.53125 275.65625 35.082031 C 275.828125 35.644531 275.910156 36.207031 275.910156 36.789062 C 275.910156 36.984375 275.902344 37.179688 275.878906 37.375 L 275.910156 37.375 L 275.910156 37.40625 C 275.910156 37.976562 275.820312 38.53125 275.65625 39.082031 C 275.488281 39.636719 275.234375 40.171875 274.890625 40.699219 C 274.65625 41.066406 274.386719 41.398438 274.09375 41.699219 C 274.09375 41.699219 274.09375 41.714844 274.09375 41.714844 C 274.09375 41.714844 274.09375 41.726562 274.09375 41.726562 L 274.078125 41.742188 C 274.078125 41.742188 274.078125 41.757812 274.078125 41.757812 C 274.078125 41.757812 274.078125 41.773438 274.078125 41.773438 C 274.078125 41.773438 274.078125 41.78125 274.078125 41.78125 C 274.078125 41.78125 274.066406 41.796875 274.066406 41.796875 C 274.066406 41.796875 274.066406 41.8125 274.066406 41.8125 C 274.066406 41.8125 274.066406 41.828125 274.066406 41.828125 C 274.066406 41.828125 274.066406 41.839844 274.066406 41.839844 C 274.066406 41.839844 274.066406 41.847656 274.066406 41.847656 C 274.066406 41.847656 274.066406 41.855469 274.066406 41.855469 C 274.066406 41.855469 274.066406 41.863281 274.066406 41.863281 C 274.066406 41.863281 274.035156 41.894531 274.035156 41.894531 C 274.035156 41.894531 274.035156 41.910156 274.035156 41.910156 C 274.035156 41.910156 274.035156 41.925781 274.035156 41.925781 C 274.035156 41.925781 274.035156 41.9375 274.035156 41.9375 C 274.035156 41.9375 274.035156 41.953125 274.035156 41.953125 L 274.011719 41.96875 L 273.996094 41.984375 C 273.996094 41.984375 273.996094 41.992188 273.996094 41.992188 C 273.996094 41.992188 273.996094 42 273.996094 42 C 273.996094 42 273.984375 42.015625 273.984375 42.015625 C 273.984375 42.015625 273.984375 42.027344 273.984375 42.027344 C 273.984375 42.027344 273.96875 42.042969 273.96875 42.042969 L 273.960938 42.042969 C 273.960938 42.042969 273.960938 42.050781 273.960938 42.050781 L 273.945312 42.050781 C 273.945312 42.050781 273.945312 42.066406 273.945312 42.066406 C 273.945312 42.066406 273.929688 42.082031 273.929688 42.082031 C 273.929688 42.082031 273.921875 42.089844 273.921875 42.089844 L 273.90625 42.089844 C 273.90625 42.089844 273.890625 42.113281 273.890625 42.113281 L 273.886719 42.113281 C 273.886719 42.113281 273.886719 42.121094 273.886719 42.121094 L 273.871094 42.121094 C 273.871094 42.121094 273.871094 42.132812 273.871094 42.132812 C 273.871094 42.132812 273.855469 42.148438 273.855469 42.148438 C 273.855469 42.148438 273.847656 42.15625 273.847656 42.15625 L 273.832031 42.15625 C 273.832031 42.15625 273.816406 42.179688 273.816406 42.179688 L 273.808594 42.179688 C 273.808594 42.179688 273.808594 42.1875 273.808594 42.1875 L 273.796875 42.1875 C 273.796875 42.1875 273.796875 42.203125 273.796875 42.203125 C 273.796875 42.203125 273.78125 42.21875 273.78125 42.21875 C 273.78125 42.21875 273.773438 42.226562 273.773438 42.226562 L 273.757812 42.226562 C 273.757812 42.226562 273.757812 42.230469 273.757812 42.230469 L 273.742188 42.230469 C 273.742188 42.230469 273.734375 42.246094 273.734375 42.246094 C 273.734375 42.246094 273.71875 42.261719 273.71875 42.261719 C 273.71875 42.261719 273.71875 42.269531 273.71875 42.269531 L 273.703125 42.269531 C 273.703125 42.269531 273.703125 42.285156 273.703125 42.285156 L 273.699219 42.285156 C 273.699219 42.285156 273.683594 42.300781 273.683594 42.300781 C 273.683594 42.300781 273.667969 42.308594 273.667969 42.308594 L 273.660156 42.308594 C 273.660156 42.308594 273.660156 42.316406 273.660156 42.316406 L 273.644531 42.316406 C 273.644531 42.316406 273.644531 42.332031 273.644531 42.332031 C 273.644531 42.332031 273.628906 42.34375 273.628906 42.34375 C 273.628906 42.34375 273.621094 42.351562 273.621094 42.351562 L 273.609375 42.351562 C 273.609375 42.351562 273.609375 42.359375 273.609375 42.359375 L 273.59375 42.359375 C 273.59375 42.359375 273.585938 42.375 273.585938 42.375 C 273.585938 42.375 273.570312 42.382812 273.570312 42.382812 L 273.5625 42.382812 C 273.5625 42.382812 273.5625 42.390625 273.5625 42.390625 L 273.546875 42.390625 C 273.546875 42.390625 273.546875 42.40625 273.546875 42.40625 L 273.539062 42.40625 C 273.539062 42.40625 273.523438 42.421875 273.523438 42.421875 C 273.523438 42.421875 273.511719 42.429688 273.511719 42.429688 L 273.496094 42.429688 C 273.496094 42.429688 273.496094 42.433594 273.496094 42.433594 L 273.480469 42.433594 C 273.480469 42.433594 273.464844 42.449219 273.464844 42.449219 L 273.449219 42.449219 C 273.449219 42.449219 273.449219 42.464844 273.449219 42.464844 L 273.441406 42.464844 C 273.441406 42.464844 273.425781 42.480469 273.425781 42.480469 C 273.425781 42.480469 273.414062 42.488281 273.414062 42.488281 L 273.398438 42.488281 C 273.398438 42.488281 273.398438 42.496094 273.398438 42.496094 L 273.382812 42.496094 C 273.382812 42.496094 273.375 42.511719 273.375 42.511719 C 273.375 42.511719 273.359375 42.527344 273.359375 42.527344 C 273.359375 42.527344 273.351562 42.53125 273.351562 42.53125 L 273.335938 42.53125 C 273.335938 42.53125 273.335938 42.539062 273.335938 42.539062 L 273.324219 42.539062 C 273.324219 42.539062 273.308594 42.554688 273.308594 42.554688 C 273.308594 42.554688 273.292969 42.5625 273.292969 42.5625 L 273.285156 42.5625 C 273.285156 42.5625 273.285156 42.570312 273.285156 42.570312 L 273.269531 42.570312 C 273.269531 42.570312 273.269531 42.585938 273.269531 42.585938 L 273.261719 42.585938 C 273.261719 42.585938 273.246094 42.601562 273.246094 42.601562 C 273.246094 42.601562 273.234375 42.609375 273.234375 42.609375 C 273.382812 42.757812 273.515625 42.917969 273.644531 43.082031 C 274.066406 43.625 274.386719 44.210938 274.597656 44.847656 L 277.15625 54.078125 L 272.578125 54.078125 L 270.210938 45.910156 C 270.121094 45.617188 269.984375 45.34375 269.804688 45.097656 C 269.625 44.847656 269.421875 44.640625 269.183594 44.464844 C 268.941406 44.292969 268.65625 44.15625 268.328125 44.050781 C 267.984375 43.9375 267.546875 43.855469 267.039062 43.796875 C 266.511719 43.734375 265.90625 43.707031 265.199219 43.707031 L 263.519531 43.707031 L 263.519531 54.070312 L 258.59375 54.070312 L 258.59375 33.59375 Z M 263.101562 39.804688 L 266.601562 39.804688 C 267.414062 39.804688 268.085938 39.78125 268.621094 39.726562 C 268.957031 39.699219 269.242188 39.660156 269.488281 39.617188 C 269.550781 39.601562 269.601562 39.585938 269.648438 39.570312 C 269.96875 39.480469 270.246094 39.351562 270.480469 39.210938 C 270.570312 39.148438 270.652344 39.089844 270.726562 39.027344 C 270.847656 38.914062 270.953125 38.789062 271.042969 38.644531 C 271.191406 38.417969 271.296875 38.171875 271.371094 37.914062 C 271.417969 37.75 271.449219 37.570312 271.46875 37.382812 L 271.476562 37.382812 C 271.476562 37.308594 271.476562 37.222656 271.476562 37.140625 C 271.476562 36.816406 271.441406 36.53125 271.363281 36.261719 C 271.289062 36 271.183594 35.757812 271.035156 35.539062 C 270.898438 35.320312 270.726562 35.140625 270.539062 35 C 270.34375 34.855469 270.113281 34.734375 269.851562 34.660156 C 269.550781 34.570312 269.136719 34.5 268.605469 34.449219 C 268.058594 34.402344 267.375 34.375 266.550781 34.375 L 263.09375 34.375 L 263.09375 39.804688 Z M 263.101562 39.804688 "/>
<path style=" stroke:none;fill-rule:nonzero;fill:rgb(36.078432%,54.901963%,85.490197%);fill-opacity:1;" d="M 163.914062 54.167969 L 169.6875 54.167969 L 163.164062 33.164062 C 162.414062 31.523438 160.761719 30.386719 158.851562 30.386719 C 156.675781 30.386719 154.835938 31.855469 154.28125 33.855469 L 154.183594 34.195312 L 148.035156 54.167969 L 153.601562 54.167969 C 155.28125 47.585938 157.042969 42.804688 158.527344 36.179688 L 158.632812 36.179688 C 160.320312 42.796875 162.128906 47.578125 163.914062 54.167969 "/>
<path style=" stroke:none;fill-rule:nonzero;fill:rgb(36.078432%,54.901963%,85.490197%);fill-opacity:1;" d="M 207.351562 54.167969 L 213.128906 54.167969 L 206.601562 33.164062 C 205.851562 31.523438 204.203125 30.386719 202.289062 30.386719 C 200.113281 30.386719 198.277344 31.855469 197.722656 33.855469 L 197.625 34.195312 L 191.476562 54.167969 L 197.039062 54.167969 C 198.71875 47.585938 200.484375 42.804688 201.96875 36.179688 L 202.074219 36.179688 C 203.761719 42.796875 205.566406 47.578125 207.351562 54.167969 "/>
<path style=" stroke:none;fill-rule:nonzero;fill:rgb(36.078432%,54.901963%,85.490197%);fill-opacity:1;" d="M 249.644531 54.167969 L 255.421875 54.167969 L 248.894531 33.164062 C 248.144531 31.523438 246.496094 30.386719 244.582031 30.386719 C 242.40625 30.386719 240.570312 31.855469 240.015625 33.855469 L 239.917969 34.195312 L 233.765625 54.167969 L 239.332031 54.167969 C 241.011719 47.585938 242.773438 42.804688 244.261719 36.179688 L 244.363281 36.179688 C 246.050781 42.796875 247.859375 47.578125 249.644531 54.167969 "/>
<path style=" stroke:none;fill-rule:nonzero;fill:rgb(36.078432%,54.901963%,85.490197%);fill-opacity:1;" d="M 294.226562 54.167969 L 300 54.167969 L 293.476562 33.164062 C 292.726562 31.523438 291.074219 30.386719 289.164062 30.386719 C 286.988281 30.386719 285.148438 31.855469 284.59375 33.855469 L 284.496094 34.195312 L 278.347656 54.167969 L 283.914062 54.167969 C 285.59375 47.585938 287.355469 42.804688 288.839844 36.179688 L 288.945312 36.179688 C 290.632812 42.796875 292.441406 47.578125 294.226562 54.167969 "/>
<path style=" stroke:none;fill-rule:evenodd;fill:rgb(71.372551%,57.647061%,15.686275%);fill-opacity:1;" d="M 226.335938 84.359375 L 221.308594 84.359375 L 221.308594 60.207031 L 226.335938 60.207031 Z M 213.742188 60.730469 C 214.515625 60.753906 215.183594 61.054688 215.730469 61.632812 C 216.285156 62.214844 216.5625 62.914062 216.5625 63.730469 C 216.5625 64.550781 216.285156 65.242188 215.730469 65.832031 C 215.175781 66.410156 214.515625 66.703125 213.742188 66.703125 C 212.96875 66.703125 212.308594 66.410156 211.753906 65.832031 C 211.199219 65.25 210.921875 64.550781 210.921875 63.730469 C 210.921875 62.914062 211.199219 62.207031 211.753906 61.617188 C 212.308594 61.03125 212.96875 60.738281 213.742188 60.738281 M 216.253906 84.367188 L 211.230469 84.367188 L 211.230469 69.441406 L 216.253906 69.441406 Z M 205.042969 84.367188 L 200.011719 84.367188 L 200.011719 73.800781 L 198.382812 73.800781 L 198.382812 69.433594 L 200.011719 69.433594 L 200.011719 64.949219 L 205.042969 64.949219 L 205.042969 69.433594 L 207.886719 69.433594 L 207.886719 73.800781 L 205.042969 73.800781 Z M 184.546875 69.441406 L 184.546875 77.410156 C 184.546875 78.382812 184.703125 79.164062 185.023438 79.773438 C 185.347656 80.375 186.023438 80.675781 187.058594 80.675781 C 188.09375 80.675781 188.765625 80.375 189.089844 79.773438 C 189.414062 79.171875 189.570312 78.394531 189.570312 77.441406 L 189.570312 69.441406 L 194.601562 69.441406 L 194.601562 78.433594 C 194.601562 80.914062 193.882812 82.605469 192.433594 83.507812 C 190.988281 84.410156 189.195312 84.863281 187.066406 84.863281 C 184.933594 84.863281 183.15625 84.410156 181.703125 83.507812 C 180.246094 82.605469 179.519531 80.921875 179.519531 78.464844 L 179.519531 69.441406 L 184.550781 69.441406 Z M 184.546875 69.441406 "/>
</g>
</svg>
