<?xml version="1.0" encoding="UTF-8"?>
<svg xmlns="http://www.w3.org/2000/svg" xmlns:xlink="http://www.w3.org/1999/xlink" width="300px" height="94px" viewBox="0 0 300 94" version="1.1">
<g id="surface1">
<path style=" stroke:none;fill-rule:nonzero;fill:rgb(14.117648%,25.490198%,55.686277%);fill-opacity:1;" d="M 109.59375 59.21875 L 104.90625 59.21875 L 109.78125 36.378906 L 119.15625 36.378906 C 120.515625 36.34375 121.867188 36.566406 123.140625 37.035156 C 124.066406 37.453125 124.835938 38.152344 125.34375 39.035156 C 125.980469 40.007812 126.285156 41.160156 126.210938 42.324219 C 126.207031 43.46875 125.984375 44.601562 125.554688 45.660156 C 125.222656 46.640625 124.695312 47.542969 124.007812 48.316406 C 123.40625 48.898438 122.746094 49.417969 122.039062 49.867188 C 121.09375 50.382812 120.023438 50.625 118.945312 50.570312 C 118.289062 50.570312 116.742188 50.761719 114.726562 50.761719 L 111.609375 50.761719 Z M 112.242188 46.8125 L 113.765625 46.8125 C 115.402344 46.859375 117.042969 46.703125 118.640625 46.34375 C 119.46875 46.097656 120.179688 45.550781 120.632812 44.816406 C 121.078125 44.164062 121.304688 43.390625 121.289062 42.605469 C 121.273438 42.121094 121.109375 41.652344 120.820312 41.265625 C 120.609375 40.863281 120.195312 40.609375 119.742188 40.609375 C 118.800781 40.363281 117.828125 40.285156 116.859375 40.371094 L 113.578125 40.371094 Z M 131.0625 59.21875 L 126.375 59.21875 L 131.25 36.425781 L 141.445312 36.425781 C 142.789062 36.417969 144.125 36.574219 145.429688 36.894531 C 146.347656 37.371094 147.144531 38.046875 147.773438 38.867188 C 148.453125 39.898438 148.804688 41.113281 148.78125 42.347656 C 148.808594 44.140625 148.171875 45.882812 147 47.234375 C 145.554688 48.617188 143.671875 49.449219 141.679688 49.585938 C 142.378906 50.230469 142.980469 50.972656 143.460938 51.792969 C 144.855469 54.195312 146.046875 56.710938 147.023438 59.3125 L 141.9375 59.3125 C 141.308594 57.269531 140.523438 55.273438 139.59375 53.34375 C 139.210938 52.214844 138.523438 51.210938 137.601562 50.453125 C 136.859375 50.140625 136.0625 49.980469 135.257812 49.984375 L 133.265625 49.984375 Z M 133.710938 46.367188 L 136.054688 46.367188 C 137.761719 46.394531 139.46875 46.238281 141.140625 45.894531 C 141.949219 45.726562 142.660156 45.257812 143.132812 44.578125 C 143.546875 43.996094 143.773438 43.296875 143.789062 42.582031 C 143.855469 41.808594 143.40625 41.082031 142.6875 40.796875 C 141.847656 40.449219 140.945312 40.289062 140.039062 40.324219 L 135.046875 40.324219 Z M 149.671875 50.359375 C 149.671875 48.925781 149.894531 47.5 150.328125 46.128906 C 150.746094 44.222656 151.542969 42.414062 152.671875 40.820312 C 153.796875 39.285156 155.296875 38.070312 157.03125 37.292969 C 158.730469 36.375 160.632812 35.90625 162.5625 35.929688 C 165.117188 35.804688 167.609375 36.761719 169.429688 38.5625 C 171.246094 40.445312 172.195312 43 172.054688 45.613281 C 171.980469 48.066406 171.375 50.472656 170.273438 52.664062 C 169.265625 54.800781 167.628906 56.582031 165.585938 57.761719 C 163.5625 58.914062 161.277344 59.519531 158.953125 59.527344 C 157.050781 59.664062 155.164062 59.113281 153.632812 57.972656 C 152.261719 57.128906 151.183594 55.882812 150.539062 54.402344 C 150.042969 53.082031 149.742188 51.699219 149.648438 50.289062 Z M 154.359375 50.125 C 154.328125 51.574219 154.796875 52.984375 155.695312 54.121094 C 156.625 55.171875 157.976562 55.746094 159.375 55.695312 C 160.667969 55.683594 161.914062 55.207031 162.890625 54.355469 C 164.195312 53.402344 165.203125 52.097656 165.796875 50.59375 C 166.457031 49.03125 166.832031 47.359375 166.898438 45.660156 C 167 44.113281 166.445312 42.59375 165.375 41.476562 C 164.441406 40.453125 163.101562 39.890625 161.71875 39.949219 C 159.464844 39.964844 157.378906 41.132812 156.1875 43.050781 C 155.023438 45.242188 154.382812 47.667969 154.3125 50.148438 Z M 184.21875 47 L 194.390625 47 L 192.398438 56.777344 C 191.019531 57.652344 189.519531 58.316406 187.945312 58.75 C 186.214844 59.261719 184.429688 59.5625 182.625 59.644531 C 180.304688 59.84375 178 59.128906 176.203125 57.644531 C 174.097656 55.730469 172.953125 52.972656 173.085938 50.125 C 173.078125 47.902344 173.53125 45.699219 174.421875 43.664062 C 175.402344 41.394531 176.933594 39.40625 178.875 37.882812 C 180.902344 36.535156 183.289062 35.835938 185.71875 35.882812 C 187.988281 35.835938 190.222656 36.457031 192.140625 37.671875 C 193.742188 39.050781 194.832031 40.929688 195.234375 43.003906 L 190.78125 43.476562 C 190.441406 42.375 189.839844 41.375 189.023438 40.5625 C 188.042969 39.902344 186.871094 39.589844 185.695312 39.667969 C 184.222656 39.691406 182.773438 40.070312 181.476562 40.773438 C 180.136719 41.710938 179.152344 43.078125 178.6875 44.648438 C 177.984375 46.339844 177.609375 48.152344 177.585938 49.984375 C 177.480469 51.464844 177.960938 52.921875 178.921875 54.050781 C 179.945312 54.976562 181.292969 55.460938 182.671875 55.390625 C 183.722656 55.34375 184.769531 55.1875 185.789062 54.917969 C 186.734375 54.734375 187.632812 54.367188 188.4375 53.839844 L 189.070312 50.546875 L 183.328125 50.546875 Z M 199.921875 59.21875 L 195.234375 59.21875 L 200.109375 36.378906 L 210.304688 36.378906 C 211.648438 36.371094 212.984375 36.527344 214.289062 36.847656 C 215.207031 37.324219 216.003906 38 216.632812 38.820312 C 217.3125 39.851562 217.664062 41.066406 217.640625 42.300781 C 217.667969 44.09375 217.03125 45.835938 215.859375 47.1875 C 214.414062 48.570312 212.53125 49.402344 210.539062 49.539062 C 211.238281 50.183594 211.839844 50.925781 212.320312 51.746094 C 213.699219 54.152344 214.875 56.667969 215.835938 59.265625 L 210.75 59.265625 C 210.121094 57.222656 209.335938 55.226562 208.40625 53.296875 C 207.941406 52.210938 207.1875 51.277344 206.226562 50.59375 C 205.484375 50.28125 204.6875 50.121094 203.882812 50.125 L 201.890625 50.125 Z M 202.570312 46.367188 L 204.914062 46.367188 C 206.621094 46.394531 208.328125 46.238281 210 45.894531 C 210.839844 45.773438 211.597656 45.328125 212.109375 44.648438 C 212.523438 44.066406 212.75 43.371094 212.765625 42.652344 C 212.832031 41.878906 212.382812 41.152344 211.664062 40.867188 C 210.832031 40.523438 209.9375 40.363281 209.039062 40.398438 L 203.90625 40.398438 Z M 217.40625 59.21875 L 222.28125 36.378906 L 239.0625 36.378906 L 238.171875 40.136719 L 225.984375 40.136719 L 225 45.285156 L 236.71875 45.285156 L 235.828125 49.042969 L 224.109375 49.042969 L 222.65625 55.273438 L 235.945312 55.273438 L 235.054688 59.078125 L 217.382812 59.078125 Z M 236.71875 51.933594 L 241.171875 51.699219 C 241.0625 52.714844 241.285156 53.738281 241.804688 54.613281 C 242.460938 55.507812 243.796875 55.71875 245.554688 55.71875 C 246.742188 55.867188 247.941406 55.558594 248.90625 54.847656 C 249.59375 54.417969 250.007812 53.664062 250.007812 52.851562 C 250.046875 52.140625 249.707031 51.460938 249.117188 51.066406 C 248.0625 50.359375 246.941406 49.757812 245.765625 49.28125 C 244.351562 48.796875 243.011719 48.125 241.78125 47.28125 C 240.917969 46.863281 240.21875 46.167969 239.789062 45.308594 C 239.292969 44.382812 239.042969 43.347656 239.0625 42.300781 C 239.011719 40.460938 239.734375 38.6875 241.054688 37.410156 C 242.695312 35.964844 244.851562 35.246094 247.03125 35.414062 C 249.277344 35.285156 251.492188 35.996094 253.242188 37.410156 C 254.695312 38.714844 255.542969 40.558594 255.585938 42.511719 L 251.132812 42.699219 C 251.074219 41.808594 250.691406 40.972656 250.054688 40.347656 C 249.167969 39.660156 248.050781 39.339844 246.9375 39.457031 C 245.933594 39.378906 244.929688 39.609375 244.054688 40.113281 C 243.535156 40.492188 243.207031 41.085938 243.164062 41.726562 C 243.117188 42.371094 243.359375 43.003906 243.820312 43.453125 C 244.816406 44.25 245.953125 44.855469 247.171875 45.238281 C 248.964844 45.917969 250.671875 46.8125 252.257812 47.894531 C 253.304688 48.949219 253.867188 50.398438 253.804688 51.886719 C 253.808594 53.84375 252.949219 55.703125 251.460938 56.964844 C 249.589844 58.480469 247.234375 59.265625 244.828125 59.171875 C 243.085938 59.257812 241.351562 58.953125 239.742188 58.28125 C 238.503906 57.703125 237.449219 56.792969 236.695312 55.648438 C 237.09375 54.753906 236.695312 53.203125 236.695312 51.886719 Z M 256.40625 51.933594 L 260.8125 51.699219 C 260.710938 52.71875 260.941406 53.738281 261.46875 54.613281 C 262.125 55.507812 263.460938 55.71875 265.21875 55.71875 C 266.40625 55.867188 267.605469 55.558594 268.570312 54.847656 C 269.246094 54.414062 269.65625 53.660156 269.648438 52.851562 C 269.6875 52.140625 269.347656 51.460938 268.757812 51.066406 C 267.710938 50.359375 266.597656 49.761719 265.429688 49.28125 C 264.015625 48.796875 262.675781 48.125 261.445312 47.28125 C 260.582031 46.863281 259.882812 46.167969 259.453125 45.308594 C 259.007812 44.410156 258.792969 43.417969 258.820312 42.417969 C 258.769531 40.578125 259.492188 38.804688 260.8125 37.53125 C 262.453125 36.082031 264.609375 35.363281 266.789062 35.53125 C 269.035156 35.402344 271.25 36.113281 273 37.53125 C 274.453125 38.832031 275.300781 40.675781 275.34375 42.628906 L 270.890625 42.863281 C 270.832031 41.972656 270.449219 41.136719 269.8125 40.515625 C 268.941406 39.8125 267.832031 39.476562 266.71875 39.574219 C 265.707031 39.511719 264.703125 39.757812 263.835938 40.277344 C 263.332031 40.660156 263.015625 41.238281 262.972656 41.871094 C 262.925781 42.5 263.15625 43.121094 263.601562 43.570312 C 264.597656 44.375 265.734375 44.988281 266.953125 45.378906 C 268.746094 46.054688 270.453125 46.9375 272.039062 48.011719 C 273.085938 49.070312 273.648438 50.515625 273.585938 52.003906 C 273.597656 53.96875 272.738281 55.835938 271.242188 57.105469 C 269.367188 58.613281 267.011719 59.386719 264.609375 59.289062 C 262.867188 59.375 261.132812 59.070312 259.523438 58.398438 C 258.261719 57.820312 257.191406 56.902344 256.429688 55.742188 C 256.542969 54.476562 256.542969 53.203125 256.429688 51.933594 Z M 277.640625 50.359375 C 277.640625 48.925781 277.863281 47.5 278.296875 46.128906 C 278.714844 44.222656 279.511719 42.414062 280.640625 40.820312 C 281.726562 39.304688 283.175781 38.089844 284.859375 37.292969 C 286.550781 36.378906 288.445312 35.910156 290.367188 35.929688 C 292.914062 35.8125 295.394531 36.765625 297.210938 38.5625 C 299.035156 40.441406 299.996094 42.996094 299.859375 45.613281 C 299.785156 48.066406 299.179688 50.472656 298.078125 52.664062 C 297.070312 54.800781 295.433594 56.582031 293.390625 57.761719 C 291.359375 58.917969 289.066406 59.523438 286.734375 59.527344 C 284.832031 59.664062 282.945312 59.113281 281.414062 57.972656 C 280.035156 57.132812 278.945312 55.886719 278.296875 54.402344 C 277.765625 53.101562 277.527344 51.695312 277.59375 50.289062 Z M 282.328125 50.125 C 282.292969 51.539062 282.738281 52.925781 283.59375 54.050781 C 284.542969 55.109375 285.921875 55.679688 287.34375 55.601562 C 288.652344 55.597656 289.917969 55.125 290.90625 54.261719 C 292.207031 53.292969 293.207031 51.972656 293.789062 50.453125 C 294.445312 48.902344 294.816406 47.25 294.890625 45.566406 C 295 44 294.4375 42.460938 293.34375 41.335938 C 292.390625 40.285156 291.011719 39.722656 289.59375 39.808594 C 287.332031 39.816406 285.234375 40.988281 284.039062 42.910156 C 282.890625 45.144531 282.28125 47.613281 282.257812 50.125 Z M 86.34375 64.578125 C 86.34375 64.578125 100.78125 55.929688 94.3125 37.71875 C 90.78125 31.210938 84.578125 26.585938 77.34375 25.074219 L 73.945312 31.726562 L 55.78125 31.726562 L 79.21875 69.675781 C 81.019531 68.628906 82.742188 67.449219 84.375 66.152344 L 66.210938 37.058594 L 76.171875 38.398438 L 79.054688 33.066406 C 84.695312 35.925781 88.15625 41.820312 87.914062 48.152344 C 87.851562 52.382812 86.015625 56.394531 82.851562 59.195312 C 82.851562 59.429688 86.367188 64.554688 86.367188 64.554688 "/>
<path style=" stroke:none;fill-rule:nonzero;fill:rgb(14.117648%,25.490198%,55.686277%);fill-opacity:1;" d="M 75.46875 24.394531 L 73.289062 29.28125 C 73.289062 29.28125 55.359375 28.621094 53.601562 31.066406 C 53.601562 31.300781 77.742188 70.148438 77.742188 70.148438 C 76.082031 71.601562 74.210938 72.792969 72.1875 73.671875 L 47.390625 34.191406 C 38.089844 38.464844 32.820312 48.476562 34.546875 58.585938 L 27.890625 62.34375 C 24.660156 50.371094 29.726562 37.699219 40.3125 31.277344 C 40.3125 31.277344 48.9375 23.523438 75.46875 24.417969 Z M 41.390625 41.054688 C 42.714844 39.484375 44.207031 38.066406 45.84375 36.824219 L 69.75 74.425781 C 69.75 74.425781 44.273438 82.882812 30.328125 66.199219 L 36.304688 62.675781 C 42.308594 68.488281 50.578125 71.332031 58.875 70.429688 Z M 41.390625 41.054688 "/>
<path style=" stroke:none;fill-rule:nonzero;fill:rgb(29.411766%,59.607846%,82.352942%);fill-opacity:1;" d="M 0 17.507812 L 24.375 55.695312 C 24.253906 51.609375 24.921875 47.539062 26.34375 43.710938 C 26.34375 43.945312 9.9375 17.507812 9.9375 17.507812 Z M 34.992188 17.507812 L 41.390625 28.199219 C 44.15625 26.882812 47.046875 25.84375 50.015625 25.097656 L 45.328125 17.578125 Z M 71.71875 17.507812 L 75.703125 22.84375 C 75.703125 22.84375 85.242188 25.050781 87.234375 28.175781 C 87 28.363281 81.46875 17.507812 81.46875 17.507812 Z M 71.71875 17.507812 "/>
</g>
</svg>
