<?xml version="1.0" encoding="UTF-8"?>
<svg xmlns="http://www.w3.org/2000/svg" xmlns:xlink="http://www.w3.org/1999/xlink" width="300px" height="94px" viewBox="0 0 301 94" version="1.1">
<g id="surface1">
<path style="fill-rule:nonzero;fill:rgb(98.823529%,84.705883%,0%);fill-opacity:1;stroke-width:14;stroke-linecap:butt;stroke-linejoin:miter;stroke:rgb(9.803922%,34.117648%,19.607843%);stroke-opacity:1;stroke-miterlimit:10;" d="M 7.004667 7.001845 L 852.615328 7.001845 L 852.615328 261.298143 L 7.004667 261.298143 Z M 7.004667 7.001845 " transform="matrix(0.349609,0,0,0.350354,0.234701,0)"/>
<path style=" stroke:none;fill-rule:nonzero;fill:rgb(0%,0%,0%);fill-opacity:1;" d="M 88.648438 61.011719 C 87.242188 61.011719 85.804688 60.824219 84.433594 61.046875 C 79.871094 61.773438 76.066406 60.066406 72.550781 57.476562 C 72 57.070312 71.507812 56.171875 71.496094 55.496094 C 71.410156 49.925781 71.402344 44.355469 71.507812 38.785156 C 71.523438 38.007812 72.109375 37 72.75 36.523438 C 74.273438 35.378906 75.953125 34.417969 77.640625 33.519531 C 78.332031 33.152344 79.207031 32.980469 79.996094 32.976562 C 85.878906 32.945312 91.777344 32.714844 97.625 33.128906 C 99.773438 33.285156 101.808594 35.011719 103.898438 36.027344 C 105.234375 36.675781 105.71875 37.667969 105.6875 39.226562 C 105.578125 44.605469 105.632812 49.984375 105.671875 55.363281 C 105.679688 56.433594 105.289062 57.03125 104.421875 57.6875 C 101.085938 60.210938 97.515625 61.636719 93.246094 61.046875 C 91.742188 60.835938 90.183594 61.011719 88.648438 61.011719 Z M 82.300781 56.523438 L 94.917969 56.523438 C 94.917969 50.5 94.910156 44.617188 94.925781 38.734375 C 94.929688 37.546875 94.21875 37.410156 93.292969 37.414062 C 90.164062 37.429688 87.035156 37.414062 83.90625 37.433594 C 83.363281 37.433594 82.824219 37.558594 82.300781 37.625 Z M 82.300781 56.523438 "/>
<path style=" stroke:none;fill-rule:nonzero;fill:rgb(0%,0%,0%);fill-opacity:1;" d="M 249.484375 61.011719 C 247.824219 61.011719 246.125 60.78125 244.507812 61.050781 C 240 61.800781 236.472656 59.742188 233.042969 57.335938 C 232.621094 57.042969 232.273438 56.324219 232.269531 55.796875 C 232.214844 49.90625 232.207031 44.011719 232.265625 38.117188 C 232.269531 37.613281 232.714844 36.953125 233.15625 36.640625 C 236.578125 34.207031 240.089844 32.398438 244.625 32.859375 C 248.867188 33.289062 253.183594 33.03125 257.460938 32.929688 C 261.023438 32.84375 263.164062 35.511719 265.894531 37.027344 C 266.183594 37.191406 266.222656 37.953125 266.222656 38.441406 C 266.246094 44.140625 266.289062 49.839844 266.183594 55.542969 C 266.167969 56.300781 265.359375 57.054688 264.894531 57.792969 C 264.804688 57.9375 264.5625 57.980469 264.417969 58.101562 C 261.402344 60.597656 257.960938 61.484375 254.089844 61.046875 C 252.574219 60.875 251.023438 61.019531 249.488281 61.019531 Z M 255.542969 37.417969 C 251.800781 37.417969 248.289062 37.492188 244.78125 37.382812 C 243.210938 37.332031 242.851562 37.910156 242.875 39.375 C 242.949219 44.496094 242.902344 49.617188 242.910156 54.734375 C 242.910156 55.34375 242.984375 55.953125 243.023438 56.539062 L 255.542969 56.539062 Z M 255.542969 37.417969 "/>
<path style=" stroke:none;fill-rule:nonzero;fill:rgb(0%,0%,0%);fill-opacity:1;" d="M 142.457031 61 C 139.046875 61 135.925781 60.988281 132.804688 61.003906 C 131.464844 61.011719 131.691406 60.03125 131.6875 59.242188 C 131.671875 52.960938 131.691406 46.675781 131.667969 40.394531 C 131.65625 37.167969 132.070312 37.4375 128.667969 37.429688 C 126.171875 37.421875 123.667969 37.566406 121.183594 37.386719 C 119.285156 37.25 118.976562 38.046875 118.992188 39.691406 C 119.066406 46.097656 118.96875 52.515625 119.066406 58.921875 C 119.09375 60.65625 118.535156 61.140625 116.875 61.050781 C 114.515625 60.917969 112.140625 60.972656 109.777344 61.03125 C 108.640625 61.058594 108.183594 60.691406 108.191406 59.503906 C 108.226562 51.167969 108.238281 42.835938 108.183594 34.503906 C 108.171875 32.890625 109.148438 32.964844 110.1875 32.960938 C 117.734375 32.957031 125.289062 33.128906 132.832031 32.890625 C 136.730469 32.769531 139.105469 35.375 142.046875 37.023438 C 142.292969 37.160156 142.433594 37.675781 142.4375 38.019531 C 142.460938 45.574219 142.457031 53.128906 142.457031 61 Z M 142.457031 61 "/>
<path style=" stroke:none;fill-rule:nonzero;fill:rgb(0%,0%,0%);fill-opacity:1;" d="M 68.523438 33.085938 C 68.644531 33.382812 68.722656 33.496094 68.734375 33.617188 C 68.972656 36.15625 67.824219 37.421875 65.289062 37.421875 C 59.34375 37.421875 53.394531 37.46875 47.449219 37.394531 C 45.90625 37.371094 45.304688 37.734375 45.335938 39.394531 C 45.433594 44.644531 45.371094 49.902344 45.382812 55.15625 C 45.382812 55.589844 45.46875 56.023438 45.519531 56.53125 L 58.148438 56.53125 L 58.148438 47.097656 L 68.773438 47.097656 C 68.773438 50.164062 68.792969 53.21875 68.742188 56.277344 C 68.734375 56.636719 68.398438 57.117188 68.078125 57.328125 C 64.824219 59.429688 61.734375 61.640625 57.390625 61.101562 C 53.800781 60.652344 50.101562 60.84375 46.46875 61.058594 C 43.140625 61.257812 40.289062 60.480469 37.46875 58.671875 C 35.546875 57.445312 34.644531 56.273438 34.75 53.878906 C 34.976562 48.886719 34.84375 43.886719 34.78125 38.886719 C 34.765625 37.675781 35.144531 36.964844 36.148438 36.230469 C 39.515625 33.769531 43.089844 32.636719 47.367188 32.863281 C 53.617188 33.191406 59.894531 32.941406 66.160156 32.949219 C 66.976562 32.949219 67.785156 33.042969 68.515625 33.082031 Z M 68.523438 33.085938 "/>
<path style=" stroke:none;fill-rule:nonzero;fill:rgb(0%,0%,0%);fill-opacity:1;" d="M 195.703125 51.480469 C 198.792969 51.480469 201.972656 51.4375 205.152344 51.539062 C 205.492188 51.550781 206.042969 52.34375 206.097656 52.820312 C 206.234375 54 206.144531 55.210938 206.144531 56.535156 L 218.773438 56.535156 L 218.773438 33.003906 C 222.191406 33.003906 225.371094 32.960938 228.546875 33.058594 C 228.914062 33.070312 229.566406 33.84375 229.570312 34.265625 C 229.628906 41.503906 229.625 48.742188 229.5625 55.976562 C 229.558594 56.472656 229.058594 57.125 228.601562 57.433594 C 226.964844 58.542969 225.28125 59.597656 223.542969 60.542969 C 222.917969 60.886719 222.09375 60.988281 221.359375 60.992188 C 216.242188 61.03125 211.128906 60.90625 206.019531 61.058594 C 203.414062 61.136719 201.304688 60.292969 199 59.175781 C 195.628906 57.539062 194.652344 55.265625 195.707031 51.484375 Z M 195.703125 51.480469 "/>
<path style=" stroke:none;fill-rule:nonzero;fill:rgb(0%,0%,0%);fill-opacity:1;" d="M 167.605469 60.902344 L 156.992188 60.902344 L 156.992188 37.421875 C 155.042969 37.421875 153.285156 37.421875 151.527344 37.421875 C 150.566406 37.421875 149.609375 37.421875 148.648438 37.421875 C 145.972656 37.421875 144.835938 35.996094 145.238281 33.148438 C 145.933594 33.082031 146.675781 32.960938 147.421875 32.960938 C 157.34375 32.949219 167.265625 32.941406 177.1875 32.980469 C 177.871094 32.980469 179.070312 33.261719 179.140625 33.59375 C 179.363281 34.6875 179.257812 35.878906 179.078125 37 C 179.042969 37.214844 178.082031 37.390625 177.546875 37.394531 C 174.296875 37.429688 171.050781 37.410156 167.609375 37.410156 L 167.609375 60.898438 Z M 167.605469 60.902344 "/>
<path style=" stroke:none;fill-rule:nonzero;fill:rgb(0%,0%,0%);fill-opacity:1;" d="M 192.703125 32.949219 L 192.703125 60.84375 L 182.222656 60.84375 C 182.171875 60.222656 182.074219 59.601562 182.074219 58.980469 C 182.066406 51.027344 182.113281 43.078125 182.046875 35.132812 C 182.03125 33.492188 182.480469 32.84375 184.203125 32.914062 C 186.996094 33.039062 189.800781 32.949219 192.703125 32.949219 Z M 192.703125 32.949219 "/>
</g>
</svg>
