<?xml version="1.0" encoding="UTF-8"?>
<svg xmlns="http://www.w3.org/2000/svg" xmlns:xlink="http://www.w3.org/1999/xlink" width="300px" height="93px" viewBox="0 0 299 93" version="1.1">
<g id="surface1">
<path style=" stroke:none;fill-rule:nonzero;fill:rgb(9.803922%,9.803922%,9.803922%);fill-opacity:1;" d="M 18.742188 50.363281 L 22.890625 50.363281 L 22.890625 43.636719 C 22.890625 43.085938 22.441406 42.636719 21.886719 42.636719 L 5.148438 42.636719 C 5.148438 42.636719 4.003906 42.921875 4.003906 43.636719 L 4.003906 62.953125 C 4.003906 63.507812 4.453125 63.957031 5.007812 63.957031 L 21.886719 63.957031 C 22.441406 63.957031 22.890625 63.507812 22.890625 62.953125 C 22.890625 61.953125 22.890625 56.800781 22.890625 56.800781 L 18.742188 56.800781 L 18.742188 59.949219 C 18.742188 59.949219 18.597656 61.378906 17.167969 61.378906 L 9.300781 61.378906 C 8.621094 61.175781 8.195312 60.507812 8.296875 59.804688 L 8.296875 46.785156 C 8.253906 46.355469 8.402344 45.929688 8.707031 45.625 C 9.015625 45.316406 9.441406 45.167969 9.871094 45.210938 L 16.738281 45.210938 C 17.167969 45.167969 17.59375 45.316406 17.902344 45.625 C 18.207031 45.929688 18.359375 46.355469 18.3125 46.785156 L 18.3125 50.363281 L 18.742188 50.363281 "/>
<path style=" stroke:none;fill-rule:nonzero;fill:rgb(9.803922%,9.803922%,9.803922%);fill-opacity:1;" d="M 31.761719 63.957031 L 39.199219 42.636719 L 47.355469 42.636719 L 54.648438 63.957031 L 49.5 63.957031 L 43.777344 46.214844 C 43.5 45.941406 43.054688 45.941406 42.777344 46.214844 L 37.054688 63.957031 Z M 31.761719 63.957031 "/>
<path style=" stroke:none;fill-rule:nonzero;fill:rgb(9.803922%,9.803922%,9.803922%);fill-opacity:1;" d="M 58.371094 42.636719 L 58.371094 46.214844 L 65.664062 46.214844 L 65.664062 63.957031 L 70.957031 63.957031 L 70.957031 46.355469 L 78.253906 46.355469 L 78.253906 42.636719 Z M 58.371094 42.636719 "/>
<path style=" stroke:none;fill-rule:nonzero;fill:rgb(9.803922%,9.803922%,9.803922%);fill-opacity:1;" d="M 81.976562 63.957031 L 89.414062 42.636719 L 97.570312 42.636719 L 104.863281 63.957031 L 99.714844 63.957031 L 93.992188 46.214844 C 93.714844 45.941406 93.269531 45.941406 92.992188 46.214844 L 87.269531 63.957031 Z M 81.976562 63.957031 "/>
<path style=" stroke:none;fill-rule:nonzero;fill:rgb(9.803922%,9.803922%,9.803922%);fill-opacity:1;" d="M 113.734375 42.636719 L 130.328125 42.636719 C 130.492188 42.558594 130.691406 42.59375 130.816406 42.722656 C 130.945312 42.847656 130.980469 43.046875 130.902344 43.210938 L 130.902344 55.65625 C 130.902344 55.972656 130.644531 56.230469 130.328125 56.230469 L 127.183594 56.230469 L 131.332031 64.097656 L 126.179688 64.097656 L 121.460938 54.65625 L 125.179688 54.65625 C 126.046875 54.65625 126.753906 53.949219 126.753906 53.082031 L 126.753906 46.355469 C 126.753906 45.488281 126.046875 44.78125 125.179688 44.78125 L 118.3125 44.78125 L 118.3125 63.957031 L 113.734375 63.957031 Z M 113.734375 42.636719 "/>
<path style=" stroke:none;fill-rule:nonzero;fill:rgb(9.803922%,9.803922%,9.803922%);fill-opacity:1;" d="M 140.773438 42.066406 L 145.351562 42.066406 L 145.351562 64.054688 L 140.773438 64.054688 Z M 140.773438 42.066406 "/>
<path style=" stroke:none;fill-rule:nonzero;fill:rgb(9.803922%,9.803922%,9.803922%);fill-opacity:1;" d="M 155.367188 42.066406 L 155.367188 63.957031 L 159.085938 63.957031 L 159.085938 47.074219 L 170.53125 63.957031 L 176.824219 63.957031 L 176.824219 42.066406 L 173.105469 42.066406 L 173.105469 58.804688 L 161.515625 42.066406 Z M 155.367188 42.066406 "/>
<path style=" stroke:none;fill-rule:nonzero;fill:rgb(9.803922%,9.803922%,9.803922%);fill-opacity:1;" d="M 191.417969 45.210938 L 205.152344 45.210938 L 205.152344 42.066406 L 186.695312 42.066406 "/>
<path style=" stroke:none;fill-rule:nonzero;fill:rgb(9.803922%,9.803922%,9.803922%);fill-opacity:1;" d="M 191.417969 45.210938 L 191.417969 52.078125 L 205.007812 52.078125 L 205.007812 54.65625 L 191.417969 54.65625 L 191.417969 61.378906 L 205.007812 61.378906 L 205.007812 63.957031 L 186.554688 63.957031 L 186.554688 42.066406 "/>
<path style=" stroke:none;fill-rule:nonzero;fill:rgb(9.803922%,9.803922%,9.803922%);fill-opacity:1;" d="M 214.878906 42.066406 L 214.878906 63.957031 L 218.597656 63.957031 L 218.597656 47.074219 L 230.042969 63.957031 L 236.339844 63.957031 L 236.339844 42.066406 L 232.621094 42.066406 L 232.621094 58.804688 L 221.03125 42.066406 Z M 214.878906 42.066406 "/>
<path style=" stroke:none;fill-rule:nonzero;fill:rgb(9.803922%,9.803922%,9.803922%);fill-opacity:1;" d="M 246.210938 42.066406 L 266.523438 42.066406 L 266.523438 46.785156 L 261.375 46.785156 C 261.375 46.785156 261.660156 44.78125 259.945312 44.640625 L 253.21875 44.640625 C 252.929688 44.597656 252.636719 44.683594 252.417969 44.878906 C 252.199219 45.070312 252.074219 45.347656 252.074219 45.640625 L 252.074219 51.363281 C 252.074219 51.917969 252.523438 52.367188 253.078125 52.367188 L 266.523438 52.367188 L 266.523438 63.8125 L 246.210938 63.8125 L 246.210938 59.804688 L 251.359375 59.804688 C 251.359375 59.804688 250.929688 61.808594 252.933594 61.808594 L 260.375 61.808594 C 260.925781 61.808594 261.375 61.359375 261.375 60.808594 L 261.375 56.230469 C 261.421875 55.800781 261.269531 55.371094 260.964844 55.066406 C 260.65625 54.761719 260.230469 54.609375 259.800781 54.65625 L 246.210938 54.65625 Z M 246.210938 42.066406 "/>
<path style=" stroke:none;fill-rule:nonzero;fill:rgb(9.803922%,9.803922%,9.803922%);fill-opacity:1;" d="M 281.261719 45.210938 L 294.996094 45.210938 L 294.996094 42.066406 L 276.539062 42.066406 "/>
<path style=" stroke:none;fill-rule:nonzero;fill:rgb(9.803922%,9.803922%,9.803922%);fill-opacity:1;" d="M 281.261719 45.210938 L 281.261719 52.078125 L 294.851562 52.078125 L 294.851562 54.65625 L 281.261719 54.65625 L 281.261719 61.378906 L 294.851562 61.378906 L 294.851562 63.957031 L 276.394531 63.957031 L 276.394531 42.066406 "/>
<path style=" stroke:none;fill-rule:nonzero;fill:rgb(100%,0%,0%);fill-opacity:1;" d="M 52.933594 27.613281 L 149.070312 27.613281 L 149.070312 31.433594 L 52.933594 31.433594 Z M 52.933594 27.613281 "/>
<path style=" stroke:none;fill-rule:nonzero;fill:rgb(0%,58.039218%,87.058824%);fill-opacity:1;" d="M 149.070312 27.613281 L 245.207031 27.613281 L 245.207031 31.433594 L 149.070312 31.433594 Z M 149.070312 27.613281 "/>
</g>
</svg>
